<svg width="192" height="192" viewBox="0 0 192 192" fill="none" xmlns="http://www.w3.org/2000/svg">
<circle cx="96" cy="96" r="96" fill="url(#paint0_linear)"/>
<path fill-rule="evenodd" clip-rule="evenodd" d="M125.073 45.6443C126.91 46.7047 127.539 49.0532 126.478 50.8898L72.1726 144.95C71.1122 146.787 68.7637 147.416 66.9271 146.356C65.0904 145.295 64.4612 142.947 65.5215 141.11L119.827 47.0498C120.888 45.2132 123.236 44.5839 125.073 45.6443ZM136.801 85.0675L147.733 125.868L106.932 136.801C104.884 137.35 102.778 136.134 102.229 134.085C101.681 132.037 102.896 129.931 104.945 129.382L138.327 120.438L129.382 87.0552C128.833 85.0067 130.049 82.9011 132.098 82.3522C134.146 81.8033 136.252 83.019 136.801 85.0675ZM85.0675 55.1993C87.116 54.6504 89.2216 55.8661 89.7705 57.9146C90.3194 59.9631 89.1037 62.0687 87.0552 62.6176L53.6728 71.5624L62.6176 104.945C63.1665 106.993 61.9508 109.099 59.9023 109.648C57.8538 110.197 55.7482 108.981 55.1993 106.933L44.2668 66.1318L85.0675 55.1993Z" fill="white"/>
<defs>
<linearGradient id="paint0_linear" x1="0" y1="0" x2="192" y2="192" gradientUnits="userSpaceOnUse">
<stop stop-color="#F25E0D"/>
<stop offset="1" stop-color="#F20D5E"/>
</linearGradient>
</defs>
</svg>
